<svg width="149" height="72" viewBox="0 0 149 72" fill="none" xmlns="http://www.w3.org/2000/svg">
<path d="M0 28.4651C0 12.7443 12.7137 0 28.3969 0H43.4305C59.1136 0 71.8274 12.7443 71.8274 28.4651V43.5349C71.8274 59.2557 59.1136 72 43.4305 72H28.3969C12.7137 72 0 59.2557 0 43.5349V28.4651Z" fill="#C8EEF6"/>
<path d="M77.1726 28.4651C77.1726 12.7443 89.8864 0 105.57 0H120.603C136.286 0 149 12.7443 149 28.4651V43.5349C149 59.2557 136.286 72 120.603 72H105.57C89.8864 72 77.1726 59.2557 77.1726 43.5349V28.4651Z" fill="#C8EEF6"/>
<path d="M23.0489 24.3902L18.3878 23.8759V21.7326H29.7198L35.7493 41.0219L37.1605 46.4658L38.4433 41.0219L44.4301 21.7326H55.6766V23.8759L50.9727 24.3902L54.3937 51.0095L58.114 51.481V53.5814H45.7985V51.481L49.6898 51.0524L47.7655 31.8059L46.8675 23.5329L45.0715 29.7055L37.9302 52.124H35.1506L28.2231 31.5916L25.7002 23.4901L24.9304 31.8059L23.2199 51.0524L27.4534 51.481V53.5814H16.2924V51.481L19.9272 51.0524L23.0489 24.3902Z" fill="black"/>
<path d="M110.955 21.4754H115.659L126.05 51.0524L128.701 51.481V53.5814H117.412V51.481L120.961 51.0524L118.951 44.7083H106.465L104.455 51.0524L108.133 51.481V53.5814H97.9979V51.481L100.649 51.0524L110.955 21.4754ZM113.649 28.3338L112.58 24.5617L111.554 28.4196L107.235 42.1793H118.139L113.649 28.3338Z" fill="black"/>
</svg>
